<?xml version="1.0" encoding="UTF-8" standalone="no"?>
<svg
   width="650"
   height="142"
   viewBox="0 0 650 142"
   version="1.1"
   id="svg14"
   sodipodi:docname="trace.svg"
   inkscape:version="1.2.1 (9c6d41e410, 2022-07-14)"
   xmlns:inkscape="http://www.inkscape.org/namespaces/inkscape"
   xmlns:sodipodi="http://sodipodi.sourceforge.net/DTD/sodipodi-0.dtd"
   xmlns="http://www.w3.org/2000/svg"
   xmlns:svg="http://www.w3.org/2000/svg">
  <defs
     id="defs18" />
  <sodipodi:namedview
     id="namedview16"
     pagecolor="#ffffff"
     bordercolor="#000000"
     borderopacity="0.25"
     inkscape:showpageshadow="2"
     inkscape:pageopacity="0.0"
     inkscape:pagecheckerboard="0"
     inkscape:deskcolor="#d1d1d1"
     showgrid="false"
     inkscape:zoom="2.3503831"
     inkscape:cx="228.89885"
     inkscape:cy="32.122423"
     inkscape:window-width="1440"
     inkscape:window-height="830"
     inkscape:window-x="-6"
     inkscape:window-y="-6"
     inkscape:window-maximized="1"
     inkscape:current-layer="svg14" />
  <path
     d="M 3.400 3.400 L 0 6.800 0 71 L 0 135.200 3.400 138.600 L 6.800 142 325.055 142 L 643.310 142 647.155 137.958 L 651 133.916 651 69.791 C 651 34.523, 650.760 5.907, 650.467 6.200 C 650.173 6.493, 648.418 5.218, 646.567 3.367 L 643.200 0 325 0 L 6.800 0 3.400 3.400 M 0.471 71 C 0.471 106.475, 0.596 120.988, 0.750 103.250 C 0.903 85.513, 0.903 56.488, 0.750 38.750 C 0.596 21.013, 0.471 35.525, 0.471 71 M 208.500 21.088 C 185.950 21.501, 154.225 22.328, 138 22.926 C 121.775 23.524, 104.675 24.236, 100 24.509 C 95.325 24.782, 83.850 25.470, 74.500 26.038 C 65.150 26.606, 51.691 27.733, 44.591 28.542 C 37.491 29.352, 29.893 30.551, 27.706 31.206 C 25.137 31.976, 23.091 33.446, 21.928 35.359 C 20.937 36.988, 19.555 41.511, 18.856 45.411 C 18.129 49.463, 17.585 60.424, 17.585 71 C 17.585 81.576, 18.129 92.537, 18.856 96.589 C 19.555 100.489, 20.937 105.012, 21.928 106.641 C 23.091 108.554, 25.137 110.024, 27.706 110.794 C 29.893 111.449, 37.491 112.648, 44.591 113.458 C 51.691 114.267, 65.150 115.394, 74.500 115.962 C 83.850 116.530, 95.325 117.217, 100 117.489 C 104.675 117.761, 121.550 118.461, 137.500 119.045 C 153.450 119.629, 186.300 120.480, 210.500 120.935 C 234.700 121.391, 286.225 121.764, 325 121.764 C 363.775 121.764, 415.300 121.391, 439.500 120.935 C 463.700 120.480, 496.550 119.629, 512.500 119.045 C 528.450 118.461, 545.325 117.761, 550 117.489 C 554.675 117.217, 566.150 116.530, 575.500 115.962 C 584.850 115.394, 598.309 114.267, 605.409 113.458 C 612.509 112.648, 620.107 111.449, 622.294 110.794 C 624.863 110.024, 626.909 108.554, 628.072 106.641 C 629.063 105.012, 630.445 100.489, 631.144 96.589 C 631.871 92.537, 632.415 81.576, 632.415 71 C 632.415 60.424, 631.871 49.463, 631.144 45.411 C 630.445 41.511, 629.063 36.988, 628.072 35.359 C 626.909 33.446, 624.863 31.976, 622.294 31.206 C 620.107 30.551, 612.509 29.352, 605.409 28.542 C 598.309 27.733, 584.850 26.606, 575.500 26.038 C 566.150 25.470, 554.675 24.783, 550 24.511 C 545.325 24.239, 528.450 23.539, 512.500 22.955 C 496.550 22.371, 463.700 21.520, 439.500 21.065 C 415.300 20.610, 362.650 20.259, 322.500 20.287 C 282.350 20.314, 231.050 20.675, 208.500 21.088 M 322.710 35.972 C 320.075 36.452, 316.279 37.697, 314.274 38.737 C 312.099 39.866, 309.796 42.217, 308.565 44.565 C 306.746 48.031, 306.460 50.647, 306.165 66.496 C 305.981 76.393, 306.123 86.833, 306.481 89.695 C 306.839 92.557, 308.115 96.384, 309.317 98.200 C 310.520 100.015, 313.751 102.622, 316.501 103.993 C 321.073 106.274, 322.611 106.484, 334.500 106.455 C 342.181 106.436, 349.331 105.886, 351.976 105.112 C 354.600 104.344, 357.790 102.382, 359.687 100.371 C 361.467 98.484, 363.388 95.266, 363.956 93.220 C 364.524 91.174, 364.981 80.725, 364.972 70 C 364.958 53.175, 364.702 49.940, 363.104 46.421 C 362.085 44.178, 360.018 41.372, 358.510 40.186 C 357.002 39, 354.133 37.557, 352.134 36.978 C 350.135 36.399, 343.775 35.739, 338 35.512 C 332.225 35.284, 325.344 35.491, 322.710 35.972 M 391.203 36.053 C 388.290 36.572, 384.631 37.657, 383.072 38.463 C 381.514 39.269, 379.093 41.289, 377.693 42.952 C 376.294 44.616, 374.623 48.345, 373.981 51.238 C 373.244 54.558, 372.941 63.144, 373.161 74.500 C 373.476 90.820, 373.715 92.873, 375.718 96.500 C 376.933 98.700, 378.956 101.212, 380.213 102.083 C 381.471 102.954, 384.075 104.218, 386 104.893 C 387.925 105.568, 394.225 106.371, 400 106.677 C 406.073 106.999, 412.994 106.765, 416.415 106.120 C 419.669 105.508, 423.931 104.218, 425.887 103.253 C 427.844 102.289, 430.343 99.939, 431.442 98.031 C 433.078 95.191, 433.512 92.244, 433.838 81.781 L 434.236 69 418.618 69 L 403 69 403 74 L 403 79 412 79 L 421 79 421 83.032 C 421 85.250, 420.369 88.576, 419.597 90.423 C 418.570 92.881, 417.198 94.110, 414.478 95.007 C 412.186 95.764, 407.360 96.071, 401.877 95.808 C 394.959 95.478, 392.388 94.934, 390.269 93.352 C 388.772 92.234, 387.244 90.235, 386.873 88.910 C 386.503 87.584, 386.155 79.442, 386.100 70.815 C 386.045 62.188, 386.430 53.999, 386.955 52.617 C 387.481 51.235, 389.149 49.294, 390.661 48.302 C 392.874 46.853, 395.483 46.500, 404 46.500 C 412.382 46.500, 415.142 46.863, 417.247 48.242 C 418.936 49.349, 420.147 51.264, 420.565 53.492 L 421.223 57 427.611 57 C 433.915 57, 434 56.964, 433.994 54.250 C 433.991 52.737, 433.498 49.700, 432.899 47.500 C 432.299 45.300, 430.839 42.445, 429.654 41.155 C 428.469 39.865, 426.150 38.104, 424.500 37.240 C 422.348 36.114, 417.967 35.591, 409 35.390 C 402.125 35.235, 394.116 35.534, 391.203 36.053 M 25 41.500 L 25 47 35.500 47 L 46 47 46 76.500 L 46 106 51.985 106 L 57.970 106 58.235 76.750 L 58.500 47.500 68.750 47.215 L 79 46.930 79 41.465 L 79 36 52 36 L 25 36 25 41.500 M 85 71 L 85 106 109.500 106 L 134 106 134 100.500 L 134 95 116 95 L 98 95 98 85.500 L 98 76 115 76 L 132 76 132 70.500 L 132 65 115 65 L 98 65 98 56 L 98 47 115.500 47 L 133 47 133 41.500 L 133 36 109 36 L 85 36 85 71 M 144 71 L 144 106 150.500 106 L 157 106 157 94.500 L 157 83 169.566 83 C 176.477 83, 182.955 83.441, 183.961 83.979 C 184.967 84.517, 186.287 86.384, 186.895 88.128 C 187.503 89.872, 188 94.606, 188 98.649 L 188 106 194.613 106 L 201.227 106 200.840 95.542 C 200.522 86.951, 200.085 84.585, 198.395 82.292 C 197.263 80.756, 194.911 79.069, 193.169 78.543 C 191.426 78.017, 190.005 77.342, 190.010 77.043 C 190.016 76.744, 191.827 75.741, 194.035 74.814 C 196.978 73.577, 198.456 72.154, 199.574 69.476 C 200.537 67.172, 201.100 62.679, 201.100 57.296 C 201.100 50.406, 200.658 47.877, 198.800 44.134 C 196.820 40.145, 195.804 39.262, 191.500 37.794 C 187.423 36.403, 182.577 36.079, 165.250 36.044 L 144 36 144 71 M 213 71 L 213 106 219.659 106 L 226.319 106 225.678 76.250 C 225.269 57.290, 225.382 47.083, 225.988 48.106 C 226.511 48.990, 230.825 60.015, 235.575 72.606 C 240.325 85.198, 245.104 97.883, 246.194 100.795 L 248.178 106.091 254.253 105.795 L 260.329 105.500 271.145 76.500 C 277.093 60.550, 282.197 47.050, 282.487 46.500 C 282.776 45.950, 282.805 59.113, 282.550 75.750 L 282.086 106 288.543 106 L 295 106 295 71 L 295 36 284.144 36 L 273.288 36 263.943 62 C 258.803 76.300, 254.334 88, 254.012 88 C 253.691 88, 249.185 76.300, 244 62 L 234.572 36 223.786 36 L 213 36 213 71 M 444 70.932 L 444 106 450.500 106 L 457 106 457 94.500 L 457 83 469.826 83 C 481.845 83, 482.782 83.141, 484.725 85.250 C 485.889 86.513, 487.040 89.474, 487.349 92 C 487.651 94.475, 487.921 98.638, 487.949 101.250 L 488 106 494.651 106 L 501.301 106 500.701 95.402 C 500.294 88.210, 499.585 84.016, 498.498 82.356 C 497.616 81.010, 495.906 79.516, 494.697 79.036 C 493.489 78.556, 491.600 77.844, 490.500 77.454 C 488.742 76.830, 488.876 76.640, 491.605 75.881 C 493.312 75.407, 495.878 73.849, 497.307 72.421 C 498.962 70.766, 500.149 68.192, 500.578 65.328 C 500.949 62.855, 501.036 57.465, 500.772 53.350 C 500.428 47.986, 499.726 45.108, 498.291 43.184 C 497.191 41.708, 494.763 39.600, 492.895 38.500 C 489.819 36.688, 487.365 36.470, 466.750 36.182 L 444 35.865 444 70.932 M 529.173 37.714 C 528.659 38.696, 523.459 54.002, 517.619 71.727 C 511.779 89.452, 507 104.414, 507 104.977 C 507 105.568, 509.709 106, 513.418 106 L 519.837 106 522 99.500 L 524.163 93 539.889 93 L 555.615 93 557.611 99.250 L 559.606 105.500 566.386 105.798 C 572.528 106.067, 573.110 105.926, 572.584 104.298 C 572.265 103.309, 566.924 87.650, 560.716 69.500 L 549.429 36.500 539.769 36.214 C 531.336 35.965, 529.990 36.156, 529.173 37.714 M 579 71 L 579 106 585.500 106 L 592 106 592 91.500 L 592 77 607.500 77 L 623 77 623 71.500 L 623 66 607.500 66 L 592 66 592 56.500 L 592 47 608.500 47 L 625 47 625 41.500 L 625 36 602 36 L 579 36 579 71 M 328.500 46.614 C 327.400 46.888, 325.292 47.579, 323.815 48.151 C 322.194 48.777, 320.686 50.440, 320.009 52.344 C 319.346 54.211, 318.920 61.970, 318.967 71.338 C 319.023 82.499, 319.460 88.166, 320.448 90.529 C 321.572 93.219, 322.704 94.114, 326.174 95.052 C 328.553 95.695, 333.736 96.016, 337.690 95.765 C 342.104 95.484, 345.887 94.649, 347.485 93.602 C 348.917 92.663, 350.519 90.765, 351.045 89.383 C 351.570 88.001, 352 79.495, 352 70.482 C 352 60.601, 351.559 53.126, 350.890 51.657 C 350.279 50.317, 348.592 48.661, 347.140 47.978 C 345.688 47.294, 341.350 46.595, 337.500 46.425 C 333.650 46.255, 329.600 46.339, 328.500 46.614 M 533.311 64.525 L 527.173 83 539.586 83 C 546.414 83, 552 82.714, 552 82.364 C 552 82.014, 549.472 74.026, 546.381 64.614 C 543.291 55.201, 540.468 47.174, 540.106 46.775 C 539.745 46.376, 536.688 54.364, 533.311 64.525 M 157.219 59.250 L 157.500 71.500 167.500 71.802 C 173 71.967, 178.988 71.830, 180.806 71.496 C 182.624 71.162, 184.986 70.014, 186.056 68.944 C 187.657 67.343, 188 65.590, 188 59 C 188 52.333, 187.667 50.667, 186 49 C 184.197 47.197, 182.667 47, 170.469 47 L 156.938 47 157.219 59.250 M 457 59.600 L 457 72.201 469.973 71.850 C 481.859 71.529, 483.135 71.311, 485.204 69.241 C 487.050 67.394, 487.530 65.627, 487.837 59.552 C 488.185 52.662, 488.026 51.935, 485.652 49.561 C 483.166 47.075, 482.710 47, 470.045 47 L 457 47 457 59.600"
     stroke="none"
     fill="#e6e2e7"
     fill-rule="evenodd"
     id="path2" />
  <path
     d="M 3.400 3.400 L 0 6.800 0 71 L 0 135.200 3.400 138.600 L 6.800 142 325.055 142 L 643.310 142 647.155 137.958 L 651 133.916 651 69.791 C 651 34.523, 650.760 5.907, 650.467 6.200 C 650.173 6.493, 648.418 5.218, 646.567 3.367 L 643.200 0 325 0 L 6.800 0 3.400 3.400 M 0.471 71 C 0.471 106.475, 0.596 120.988, 0.750 103.250 C 0.903 85.513, 0.903 56.488, 0.750 38.750 C 0.596 21.013, 0.471 35.525, 0.471 71 M 208.500 21.088 C 185.950 21.501, 154.225 22.328, 138 22.926 C 121.775 23.524, 104.675 24.236, 100 24.509 C 95.325 24.782, 83.850 25.470, 74.500 26.038 C 65.150 26.606, 51.691 27.733, 44.591 28.542 C 37.491 29.352, 29.893 30.551, 27.706 31.206 C 25.137 31.976, 23.091 33.446, 21.928 35.359 C 20.937 36.988, 19.555 41.511, 18.856 45.411 C 18.129 49.463, 17.585 60.424, 17.585 71 C 17.585 81.576, 18.129 92.537, 18.856 96.589 C 19.555 100.489, 20.937 105.012, 21.928 106.641 C 23.091 108.554, 25.137 110.024, 27.706 110.794 C 29.893 111.449, 37.491 112.648, 44.591 113.458 C 51.691 114.267, 65.150 115.394, 74.500 115.962 C 83.850 116.530, 95.325 117.217, 100 117.489 C 104.675 117.761, 121.550 118.461, 137.500 119.045 C 153.450 119.629, 186.300 120.480, 210.500 120.935 C 234.700 121.391, 286.225 121.764, 325 121.764 C 363.775 121.764, 415.300 121.391, 439.500 120.935 C 463.700 120.480, 496.550 119.629, 512.500 119.045 C 528.450 118.461, 545.325 117.761, 550 117.489 C 554.675 117.217, 566.150 116.530, 575.500 115.962 C 584.850 115.394, 598.309 114.267, 605.409 113.458 C 612.509 112.648, 620.107 111.449, 622.294 110.794 C 624.863 110.024, 626.909 108.554, 628.072 106.641 C 629.063 105.012, 630.445 100.489, 631.144 96.589 C 631.871 92.537, 632.415 81.576, 632.415 71 C 632.415 60.424, 631.871 49.463, 631.144 45.411 C 630.445 41.511, 629.063 36.988, 628.072 35.359 C 626.909 33.446, 624.863 31.976, 622.294 31.206 C 620.107 30.551, 612.509 29.352, 605.409 28.542 C 598.309 27.733, 584.850 26.606, 575.500 26.038 C 566.150 25.470, 554.675 24.783, 550 24.511 C 545.325 24.239, 528.450 23.539, 512.500 22.955 C 496.550 22.371, 463.700 21.520, 439.500 21.065 C 415.300 20.610, 362.650 20.259, 322.500 20.287 C 282.350 20.314, 231.050 20.675, 208.500 21.088 M 322.710 35.972 C 320.075 36.452, 316.279 37.697, 314.274 38.737 C 312.099 39.866, 309.796 42.217, 308.565 44.565 C 306.746 48.031, 306.460 50.647, 306.165 66.496 C 305.981 76.393, 306.123 86.833, 306.481 89.695 C 306.839 92.557, 308.115 96.384, 309.317 98.200 C 310.520 100.015, 313.751 102.622, 316.501 103.993 C 321.073 106.274, 322.611 106.484, 334.500 106.455 C 342.181 106.436, 349.331 105.886, 351.976 105.112 C 354.600 104.344, 357.790 102.382, 359.687 100.371 C 361.467 98.484, 363.388 95.266, 363.956 93.220 C 364.524 91.174, 364.981 80.725, 364.972 70 C 364.958 53.175, 364.702 49.940, 363.104 46.421 C 362.085 44.178, 360.018 41.372, 358.510 40.186 C 357.002 39, 354.133 37.557, 352.134 36.978 C 350.135 36.399, 343.775 35.739, 338 35.512 C 332.225 35.284, 325.344 35.491, 322.710 35.972 M 391.203 36.053 C 388.290 36.572, 384.631 37.657, 383.072 38.463 C 381.514 39.269, 379.093 41.289, 377.693 42.952 C 376.294 44.616, 374.623 48.345, 373.981 51.238 C 373.244 54.558, 372.941 63.144, 373.161 74.500 C 373.476 90.820, 373.715 92.873, 375.718 96.500 C 376.933 98.700, 378.956 101.212, 380.213 102.083 C 381.471 102.954, 384.075 104.218, 386 104.893 C 387.925 105.568, 394.225 106.371, 400 106.677 C 406.073 106.999, 412.994 106.765, 416.415 106.120 C 419.669 105.508, 423.931 104.218, 425.887 103.253 C 427.844 102.289, 430.343 99.939, 431.442 98.031 C 433.078 95.191, 433.512 92.244, 433.838 81.781 L 434.236 69 418.618 69 L 403 69 403 74 L 403 79 412 79 L 421 79 421 83.032 C 421 85.250, 420.369 88.576, 419.597 90.423 C 418.570 92.881, 417.198 94.110, 414.478 95.007 C 412.186 95.764, 407.360 96.071, 401.877 95.808 C 394.959 95.478, 392.388 94.934, 390.269 93.352 C 388.772 92.234, 387.244 90.235, 386.873 88.910 C 386.503 87.584, 386.155 79.442, 386.100 70.815 C 386.045 62.188, 386.430 53.999, 386.955 52.617 C 387.481 51.235, 389.149 49.294, 390.661 48.302 C 392.874 46.853, 395.483 46.500, 404 46.500 C 412.382 46.500, 415.142 46.863, 417.247 48.242 C 418.936 49.349, 420.147 51.264, 420.565 53.492 L 421.223 57 427.611 57 C 433.915 57, 434 56.964, 433.994 54.250 C 433.991 52.737, 433.498 49.700, 432.899 47.500 C 432.299 45.300, 430.839 42.445, 429.654 41.155 C 428.469 39.865, 426.150 38.104, 424.500 37.240 C 422.348 36.114, 417.967 35.591, 409 35.390 C 402.125 35.235, 394.116 35.534, 391.203 36.053 M 25 41.500 L 25 47 35.500 47 L 46 47 46 76.500 L 46 106 51.985 106 L 57.970 106 58.235 76.750 L 58.500 47.500 68.750 47.215 L 79 46.930 79 41.465 L 79 36 52 36 L 25 36 25 41.500 M 85 71 L 85 106 109.500 106 L 134 106 134 100.500 L 134 95 116 95 L 98 95 98 85.500 L 98 76 115 76 L 132 76 132 70.500 L 132 65 115 65 L 98 65 98 56 L 98 47 115.500 47 L 133 47 133 41.500 L 133 36 109 36 L 85 36 85 71 M 144 71 L 144 106 150.500 106 L 157 106 157 94.500 L 157 83 169.566 83 C 176.477 83, 182.955 83.441, 183.961 83.979 C 184.967 84.517, 186.287 86.384, 186.895 88.128 C 187.503 89.872, 188 94.606, 188 98.649 L 188 106 194.613 106 L 201.227 106 200.840 95.542 C 200.522 86.951, 200.085 84.585, 198.395 82.292 C 197.263 80.756, 194.911 79.069, 193.169 78.543 C 191.426 78.017, 190.005 77.342, 190.010 77.043 C 190.016 76.744, 191.827 75.741, 194.035 74.814 C 196.978 73.577, 198.456 72.154, 199.574 69.476 C 200.537 67.172, 201.100 62.679, 201.100 57.296 C 201.100 50.406, 200.658 47.877, 198.800 44.134 C 196.820 40.145, 195.804 39.262, 191.500 37.794 C 187.423 36.403, 182.577 36.079, 165.250 36.044 L 144 36 144 71 M 213 71 L 213 106 219.659 106 L 226.319 106 225.678 76.250 C 225.269 57.290, 225.382 47.083, 225.988 48.106 C 226.511 48.990, 230.825 60.015, 235.575 72.606 C 240.325 85.198, 245.104 97.883, 246.194 100.795 L 248.178 106.091 254.253 105.795 L 260.329 105.500 271.145 76.500 C 277.093 60.550, 282.197 47.050, 282.487 46.500 C 282.776 45.950, 282.805 59.113, 282.550 75.750 L 282.086 106 288.543 106 L 295 106 295 71 L 295 36 284.144 36 L 273.288 36 263.943 62 C 258.803 76.300, 254.334 88, 254.012 88 C 253.691 88, 249.185 76.300, 244 62 L 234.572 36 223.786 36 L 213 36 213 71 M 444 70.932 L 444 106 450.500 106 L 457 106 457 94.500 L 457 83 469.826 83 C 481.845 83, 482.782 83.141, 484.725 85.250 C 485.889 86.513, 487.040 89.474, 487.349 92 C 487.651 94.475, 487.921 98.638, 487.949 101.250 L 488 106 494.651 106 L 501.301 106 500.701 95.402 C 500.294 88.210, 499.585 84.016, 498.498 82.356 C 497.616 81.010, 495.906 79.516, 494.697 79.036 C 493.489 78.556, 491.600 77.844, 490.500 77.454 C 488.742 76.830, 488.876 76.640, 491.605 75.881 C 493.312 75.407, 495.878 73.849, 497.307 72.421 C 498.962 70.766, 500.149 68.192, 500.578 65.328 C 500.949 62.855, 501.036 57.465, 500.772 53.350 C 500.428 47.986, 499.726 45.108, 498.291 43.184 C 497.191 41.708, 494.763 39.600, 492.895 38.500 C 489.819 36.688, 487.365 36.470, 466.750 36.182 L 444 35.865 444 70.932 M 529.173 37.714 C 528.659 38.696, 523.459 54.002, 517.619 71.727 C 511.779 89.452, 507 104.414, 507 104.977 C 507 105.568, 509.709 106, 513.418 106 L 519.837 106 522 99.500 L 524.163 93 539.889 93 L 555.615 93 557.611 99.250 L 559.606 105.500 566.386 105.798 C 572.528 106.067, 573.110 105.926, 572.584 104.298 C 572.265 103.309, 566.924 87.650, 560.716 69.500 L 549.429 36.500 539.769 36.214 C 531.336 35.965, 529.990 36.156, 529.173 37.714 M 579 71 L 579 106 585.500 106 L 592 106 592 91.500 L 592 77 607.500 77 L 623 77 623 71.500 L 623 66 607.500 66 L 592 66 592 56.500 L 592 47 608.500 47 L 625 47 625 41.500 L 625 36 602 36 L 579 36 579 71 M 328.500 46.614 C 327.400 46.888, 325.292 47.579, 323.815 48.151 C 322.194 48.777, 320.686 50.440, 320.009 52.344 C 319.346 54.211, 318.920 61.970, 318.967 71.338 C 319.023 82.499, 319.460 88.166, 320.448 90.529 C 321.572 93.219, 322.704 94.114, 326.174 95.052 C 328.553 95.695, 333.736 96.016, 337.690 95.765 C 342.104 95.484, 345.887 94.649, 347.485 93.602 C 348.917 92.663, 350.519 90.765, 351.045 89.383 C 351.570 88.001, 352 79.495, 352 70.482 C 352 60.601, 351.559 53.126, 350.890 51.657 C 350.279 50.317, 348.592 48.661, 347.140 47.978 C 345.688 47.294, 341.350 46.595, 337.500 46.425 C 333.650 46.255, 329.600 46.339, 328.500 46.614 M 533.311 64.525 L 527.173 83 539.586 83 C 546.414 83, 552 82.714, 552 82.364 C 552 82.014, 549.472 74.026, 546.381 64.614 C 543.291 55.201, 540.468 47.174, 540.106 46.775 C 539.745 46.376, 536.688 54.364, 533.311 64.525 M 157.219 59.250 L 157.500 71.500 167.500 71.802 C 173 71.967, 178.988 71.830, 180.806 71.496 C 182.624 71.162, 184.986 70.014, 186.056 68.944 C 187.657 67.343, 188 65.590, 188 59 C 188 52.333, 187.667 50.667, 186 49 C 184.197 47.197, 182.667 47, 170.469 47 L 156.938 47 157.219 59.250 M 457 59.600 L 457 72.201 469.973 71.850 C 481.859 71.529, 483.135 71.311, 485.204 69.241 C 487.050 67.394, 487.530 65.627, 487.837 59.552 C 488.185 52.662, 488.026 51.935, 485.652 49.561 C 483.166 47.075, 482.710 47, 470.045 47 L 457 47 457 59.600"
     stroke="none"
     fill="#e6e2e7"
     fill-rule="evenodd"
     id="path4" />
  <path
     d="M 3.400 3.400 L 0 6.800 0 71 L 0 135.200 3.400 138.600 L 6.800 142 325.055 142 L 643.310 142 647.155 137.958 L 651 133.916 651 69.791 C 651 34.523, 650.760 5.907, 650.467 6.200 C 650.173 6.493, 648.418 5.218, 646.567 3.367 L 643.200 0 325 0 L 6.800 0 3.400 3.400 M 0.471 71 C 0.471 106.475, 0.596 120.988, 0.750 103.250 C 0.903 85.513, 0.903 56.488, 0.750 38.750 C 0.596 21.013, 0.471 35.525, 0.471 71 M 208.500 21.088 C 185.950 21.501, 154.225 22.328, 138 22.926 C 121.775 23.524, 104.675 24.236, 100 24.509 C 95.325 24.782, 83.850 25.470, 74.500 26.038 C 65.150 26.606, 51.691 27.733, 44.591 28.542 C 37.491 29.352, 29.893 30.551, 27.706 31.206 C 25.137 31.976, 23.091 33.446, 21.928 35.359 C 20.937 36.988, 19.555 41.511, 18.856 45.411 C 18.129 49.463, 17.585 60.424, 17.585 71 C 17.585 81.576, 18.129 92.537, 18.856 96.589 C 19.555 100.489, 20.937 105.012, 21.928 106.641 C 23.091 108.554, 25.137 110.024, 27.706 110.794 C 29.893 111.449, 37.491 112.648, 44.591 113.458 C 51.691 114.267, 65.150 115.394, 74.500 115.962 C 83.850 116.530, 95.325 117.217, 100 117.489 C 104.675 117.761, 121.550 118.461, 137.500 119.045 C 153.450 119.629, 186.300 120.480, 210.500 120.935 C 234.700 121.391, 286.225 121.764, 325 121.764 C 363.775 121.764, 415.300 121.391, 439.500 120.935 C 463.700 120.480, 496.550 119.629, 512.500 119.045 C 528.450 118.461, 545.325 117.761, 550 117.489 C 554.675 117.217, 566.150 116.530, 575.500 115.962 C 584.850 115.394, 598.309 114.267, 605.409 113.458 C 612.509 112.648, 620.107 111.449, 622.294 110.794 C 624.863 110.024, 626.909 108.554, 628.072 106.641 C 629.063 105.012, 630.445 100.489, 631.144 96.589 C 631.871 92.537, 632.415 81.576, 632.415 71 C 632.415 60.424, 631.871 49.463, 631.144 45.411 C 630.445 41.511, 629.063 36.988, 628.072 35.359 C 626.909 33.446, 624.863 31.976, 622.294 31.206 C 620.107 30.551, 612.509 29.352, 605.409 28.542 C 598.309 27.733, 584.850 26.606, 575.500 26.038 C 566.150 25.470, 554.675 24.783, 550 24.511 C 545.325 24.239, 528.450 23.539, 512.500 22.955 C 496.550 22.371, 463.700 21.520, 439.500 21.065 C 415.300 20.610, 362.650 20.259, 322.500 20.287 C 282.350 20.314, 231.050 20.675, 208.500 21.088 M 322.710 35.972 C 320.075 36.452, 316.279 37.697, 314.274 38.737 C 312.099 39.866, 309.796 42.217, 308.565 44.565 C 306.746 48.031, 306.460 50.647, 306.165 66.496 C 305.981 76.393, 306.123 86.833, 306.481 89.695 C 306.839 92.557, 308.115 96.384, 309.317 98.200 C 310.520 100.015, 313.751 102.622, 316.501 103.993 C 321.073 106.274, 322.611 106.484, 334.500 106.455 C 342.181 106.436, 349.331 105.886, 351.976 105.112 C 354.600 104.344, 357.790 102.382, 359.687 100.371 C 361.467 98.484, 363.388 95.266, 363.956 93.220 C 364.524 91.174, 364.981 80.725, 364.972 70 C 364.958 53.175, 364.702 49.940, 363.104 46.421 C 362.085 44.178, 360.018 41.372, 358.510 40.186 C 357.002 39, 354.133 37.557, 352.134 36.978 C 350.135 36.399, 343.775 35.739, 338 35.512 C 332.225 35.284, 325.344 35.491, 322.710 35.972 M 391.203 36.053 C 388.290 36.572, 384.631 37.657, 383.072 38.463 C 381.514 39.269, 379.093 41.289, 377.693 42.952 C 376.294 44.616, 374.623 48.345, 373.981 51.238 C 373.244 54.558, 372.941 63.144, 373.161 74.500 C 373.476 90.820, 373.715 92.873, 375.718 96.500 C 376.933 98.700, 378.956 101.212, 380.213 102.083 C 381.471 102.954, 384.075 104.218, 386 104.893 C 387.925 105.568, 394.225 106.371, 400 106.677 C 406.073 106.999, 412.994 106.765, 416.415 106.120 C 419.669 105.508, 423.931 104.218, 425.887 103.253 C 427.844 102.289, 430.343 99.939, 431.442 98.031 C 433.078 95.191, 433.512 92.244, 433.838 81.781 L 434.236 69 418.618 69 L 403 69 403 74 L 403 79 412 79 L 421 79 421 83.032 C 421 85.250, 420.369 88.576, 419.597 90.423 C 418.570 92.881, 417.198 94.110, 414.478 95.007 C 412.186 95.764, 407.360 96.071, 401.877 95.808 C 394.959 95.478, 392.388 94.934, 390.269 93.352 C 388.772 92.234, 387.244 90.235, 386.873 88.910 C 386.503 87.584, 386.155 79.442, 386.100 70.815 C 386.045 62.188, 386.430 53.999, 386.955 52.617 C 387.481 51.235, 389.149 49.294, 390.661 48.302 C 392.874 46.853, 395.483 46.500, 404 46.500 C 412.382 46.500, 415.142 46.863, 417.247 48.242 C 418.936 49.349, 420.147 51.264, 420.565 53.492 L 421.223 57 427.611 57 C 433.915 57, 434 56.964, 433.994 54.250 C 433.991 52.737, 433.498 49.700, 432.899 47.500 C 432.299 45.300, 430.839 42.445, 429.654 41.155 C 428.469 39.865, 426.150 38.104, 424.500 37.240 C 422.348 36.114, 417.967 35.591, 409 35.390 C 402.125 35.235, 394.116 35.534, 391.203 36.053 M 25 41.500 L 25 47 35.500 47 L 46 47 46 76.500 L 46 106 51.985 106 L 57.970 106 58.235 76.750 L 58.500 47.500 68.750 47.215 L 79 46.930 79 41.465 L 79 36 52 36 L 25 36 25 41.500 M 85 71 L 85 106 109.500 106 L 134 106 134 100.500 L 134 95 116 95 L 98 95 98 85.500 L 98 76 115 76 L 132 76 132 70.500 L 132 65 115 65 L 98 65 98 56 L 98 47 115.500 47 L 133 47 133 41.500 L 133 36 109 36 L 85 36 85 71 M 144 71 L 144 106 150.500 106 L 157 106 157 94.500 L 157 83 169.566 83 C 176.477 83, 182.955 83.441, 183.961 83.979 C 184.967 84.517, 186.287 86.384, 186.895 88.128 C 187.503 89.872, 188 94.606, 188 98.649 L 188 106 194.613 106 L 201.227 106 200.840 95.542 C 200.522 86.951, 200.085 84.585, 198.395 82.292 C 197.263 80.756, 194.911 79.069, 193.169 78.543 C 191.426 78.017, 190.005 77.342, 190.010 77.043 C 190.016 76.744, 191.827 75.741, 194.035 74.814 C 196.978 73.577, 198.456 72.154, 199.574 69.476 C 200.537 67.172, 201.100 62.679, 201.100 57.296 C 201.100 50.406, 200.658 47.877, 198.800 44.134 C 196.820 40.145, 195.804 39.262, 191.500 37.794 C 187.423 36.403, 182.577 36.079, 165.250 36.044 L 144 36 144 71 M 213 71 L 213 106 219.659 106 L 226.319 106 225.678 76.250 C 225.269 57.290, 225.382 47.083, 225.988 48.106 C 226.511 48.990, 230.825 60.015, 235.575 72.606 C 240.325 85.198, 245.104 97.883, 246.194 100.795 L 248.178 106.091 254.253 105.795 L 260.329 105.500 271.145 76.500 C 277.093 60.550, 282.197 47.050, 282.487 46.500 C 282.776 45.950, 282.805 59.113, 282.550 75.750 L 282.086 106 288.543 106 L 295 106 295 71 L 295 36 284.144 36 L 273.288 36 263.943 62 C 258.803 76.300, 254.334 88, 254.012 88 C 253.691 88, 249.185 76.300, 244 62 L 234.572 36 223.786 36 L 213 36 213 71 M 444 70.932 L 444 106 450.500 106 L 457 106 457 94.500 L 457 83 469.826 83 C 481.845 83, 482.782 83.141, 484.725 85.250 C 485.889 86.513, 487.040 89.474, 487.349 92 C 487.651 94.475, 487.921 98.638, 487.949 101.250 L 488 106 494.651 106 L 501.301 106 500.701 95.402 C 500.294 88.210, 499.585 84.016, 498.498 82.356 C 497.616 81.010, 495.906 79.516, 494.697 79.036 C 493.489 78.556, 491.600 77.844, 490.500 77.454 C 488.742 76.830, 488.876 76.640, 491.605 75.881 C 493.312 75.407, 495.878 73.849, 497.307 72.421 C 498.962 70.766, 500.149 68.192, 500.578 65.328 C 500.949 62.855, 501.036 57.465, 500.772 53.350 C 500.428 47.986, 499.726 45.108, 498.291 43.184 C 497.191 41.708, 494.763 39.600, 492.895 38.500 C 489.819 36.688, 487.365 36.470, 466.750 36.182 L 444 35.865 444 70.932 M 529.173 37.714 C 528.659 38.696, 523.459 54.002, 517.619 71.727 C 511.779 89.452, 507 104.414, 507 104.977 C 507 105.568, 509.709 106, 513.418 106 L 519.837 106 522 99.500 L 524.163 93 539.889 93 L 555.615 93 557.611 99.250 L 559.606 105.500 566.386 105.798 C 572.528 106.067, 573.110 105.926, 572.584 104.298 C 572.265 103.309, 566.924 87.650, 560.716 69.500 L 549.429 36.500 539.769 36.214 C 531.336 35.965, 529.990 36.156, 529.173 37.714 M 579 71 L 579 106 585.500 106 L 592 106 592 91.500 L 592 77 607.500 77 L 623 77 623 71.500 L 623 66 607.500 66 L 592 66 592 56.500 L 592 47 608.500 47 L 625 47 625 41.500 L 625 36 602 36 L 579 36 579 71 M 328.500 46.614 C 327.400 46.888, 325.292 47.579, 323.815 48.151 C 322.194 48.777, 320.686 50.440, 320.009 52.344 C 319.346 54.211, 318.920 61.970, 318.967 71.338 C 319.023 82.499, 319.460 88.166, 320.448 90.529 C 321.572 93.219, 322.704 94.114, 326.174 95.052 C 328.553 95.695, 333.736 96.016, 337.690 95.765 C 342.104 95.484, 345.887 94.649, 347.485 93.602 C 348.917 92.663, 350.519 90.765, 351.045 89.383 C 351.570 88.001, 352 79.495, 352 70.482 C 352 60.601, 351.559 53.126, 350.890 51.657 C 350.279 50.317, 348.592 48.661, 347.140 47.978 C 345.688 47.294, 341.350 46.595, 337.500 46.425 C 333.650 46.255, 329.600 46.339, 328.500 46.614 M 533.311 64.525 L 527.173 83 539.586 83 C 546.414 83, 552 82.714, 552 82.364 C 552 82.014, 549.472 74.026, 546.381 64.614 C 543.291 55.201, 540.468 47.174, 540.106 46.775 C 539.745 46.376, 536.688 54.364, 533.311 64.525 M 157.219 59.250 L 157.500 71.500 167.500 71.802 C 173 71.967, 178.988 71.830, 180.806 71.496 C 182.624 71.162, 184.986 70.014, 186.056 68.944 C 187.657 67.343, 188 65.590, 188 59 C 188 52.333, 187.667 50.667, 186 49 C 184.197 47.197, 182.667 47, 170.469 47 L 156.938 47 157.219 59.250 M 457 59.600 L 457 72.201 469.973 71.850 C 481.859 71.529, 483.135 71.311, 485.204 69.241 C 487.050 67.394, 487.530 65.627, 487.837 59.552 C 488.185 52.662, 488.026 51.935, 485.652 49.561 C 483.166 47.075, 482.710 47, 470.045 47 L 457 47 457 59.600"
     stroke="none"
     fill="#e6e2e7"
     fill-rule="evenodd"
     id="path6" />
  <path
     d="M 3.400 3.400 L 0 6.800 0 71 L 0 135.200 3.400 138.600 L 6.800 142 325.055 142 L 643.310 142 647.155 137.958 L 651 133.916 651 69.791 C 651 34.523, 650.760 5.907, 650.467 6.200 C 650.173 6.493, 648.418 5.218, 646.567 3.367 L 643.200 0 325 0 L 6.800 0 3.400 3.400 M 0.471 71 C 0.471 106.475, 0.596 120.988, 0.750 103.250 C 0.903 85.513, 0.903 56.488, 0.750 38.750 C 0.596 21.013, 0.471 35.525, 0.471 71 M 208.500 21.088 C 185.950 21.501, 154.225 22.328, 138 22.926 C 121.775 23.524, 104.675 24.236, 100 24.509 C 95.325 24.782, 83.850 25.470, 74.500 26.038 C 65.150 26.606, 51.691 27.733, 44.591 28.542 C 37.491 29.352, 29.893 30.551, 27.706 31.206 C 25.137 31.976, 23.091 33.446, 21.928 35.359 C 20.937 36.988, 19.555 41.511, 18.856 45.411 C 18.129 49.463, 17.585 60.424, 17.585 71 C 17.585 81.576, 18.129 92.537, 18.856 96.589 C 19.555 100.489, 20.937 105.012, 21.928 106.641 C 23.091 108.554, 25.137 110.024, 27.706 110.794 C 29.893 111.449, 37.491 112.648, 44.591 113.458 C 51.691 114.267, 65.150 115.394, 74.500 115.962 C 83.850 116.530, 95.325 117.217, 100 117.489 C 104.675 117.761, 121.550 118.461, 137.500 119.045 C 153.450 119.629, 186.300 120.480, 210.500 120.935 C 234.700 121.391, 286.225 121.764, 325 121.764 C 363.775 121.764, 415.300 121.391, 439.500 120.935 C 463.700 120.480, 496.550 119.629, 512.500 119.045 C 528.450 118.461, 545.325 117.761, 550 117.489 C 554.675 117.217, 566.150 116.530, 575.500 115.962 C 584.850 115.394, 598.309 114.267, 605.409 113.458 C 612.509 112.648, 620.107 111.449, 622.294 110.794 C 624.863 110.024, 626.909 108.554, 628.072 106.641 C 629.063 105.012, 630.445 100.489, 631.144 96.589 C 631.871 92.537, 632.415 81.576, 632.415 71 C 632.415 60.424, 631.871 49.463, 631.144 45.411 C 630.445 41.511, 629.063 36.988, 628.072 35.359 C 626.909 33.446, 624.863 31.976, 622.294 31.206 C 620.107 30.551, 612.509 29.352, 605.409 28.542 C 598.309 27.733, 584.850 26.606, 575.500 26.038 C 566.150 25.470, 554.675 24.783, 550 24.511 C 545.325 24.239, 528.450 23.539, 512.500 22.955 C 496.550 22.371, 463.700 21.520, 439.500 21.065 C 415.300 20.610, 362.650 20.259, 322.500 20.287 C 282.350 20.314, 231.050 20.675, 208.500 21.088 M 322.710 35.972 C 320.075 36.452, 316.279 37.697, 314.274 38.737 C 312.099 39.866, 309.796 42.217, 308.565 44.565 C 306.746 48.031, 306.460 50.647, 306.165 66.496 C 305.981 76.393, 306.123 86.833, 306.481 89.695 C 306.839 92.557, 308.115 96.384, 309.317 98.200 C 310.520 100.015, 313.751 102.622, 316.501 103.993 C 321.073 106.274, 322.611 106.484, 334.500 106.455 C 342.181 106.436, 349.331 105.886, 351.976 105.112 C 354.600 104.344, 357.790 102.382, 359.687 100.371 C 361.467 98.484, 363.388 95.266, 363.956 93.220 C 364.524 91.174, 364.981 80.725, 364.972 70 C 364.958 53.175, 364.702 49.940, 363.104 46.421 C 362.085 44.178, 360.018 41.372, 358.510 40.186 C 357.002 39, 354.133 37.557, 352.134 36.978 C 350.135 36.399, 343.775 35.739, 338 35.512 C 332.225 35.284, 325.344 35.491, 322.710 35.972 M 391.203 36.053 C 388.290 36.572, 384.631 37.657, 383.072 38.463 C 381.514 39.269, 379.093 41.289, 377.693 42.952 C 376.294 44.616, 374.623 48.345, 373.981 51.238 C 373.244 54.558, 372.941 63.144, 373.161 74.500 C 373.476 90.820, 373.715 92.873, 375.718 96.500 C 376.933 98.700, 378.956 101.212, 380.213 102.083 C 381.471 102.954, 384.075 104.218, 386 104.893 C 387.925 105.568, 394.225 106.371, 400 106.677 C 406.073 106.999, 412.994 106.765, 416.415 106.120 C 419.669 105.508, 423.931 104.218, 425.887 103.253 C 427.844 102.289, 430.343 99.939, 431.442 98.031 C 433.078 95.191, 433.512 92.244, 433.838 81.781 L 434.236 69 418.618 69 L 403 69 403 74 L 403 79 412 79 L 421 79 421 83.032 C 421 85.250, 420.369 88.576, 419.597 90.423 C 418.570 92.881, 417.198 94.110, 414.478 95.007 C 412.186 95.764, 407.360 96.071, 401.877 95.808 C 394.959 95.478, 392.388 94.934, 390.269 93.352 C 388.772 92.234, 387.244 90.235, 386.873 88.910 C 386.503 87.584, 386.155 79.442, 386.100 70.815 C 386.045 62.188, 386.430 53.999, 386.955 52.617 C 387.481 51.235, 389.149 49.294, 390.661 48.302 C 392.874 46.853, 395.483 46.500, 404 46.500 C 412.382 46.500, 415.142 46.863, 417.247 48.242 C 418.936 49.349, 420.147 51.264, 420.565 53.492 L 421.223 57 427.611 57 C 433.915 57, 434 56.964, 433.994 54.250 C 433.991 52.737, 433.498 49.700, 432.899 47.500 C 432.299 45.300, 430.839 42.445, 429.654 41.155 C 428.469 39.865, 426.150 38.104, 424.500 37.240 C 422.348 36.114, 417.967 35.591, 409 35.390 C 402.125 35.235, 394.116 35.534, 391.203 36.053 M 25 41.500 L 25 47 35.500 47 L 46 47 46 76.500 L 46 106 51.985 106 L 57.970 106 58.235 76.750 L 58.500 47.500 68.750 47.215 L 79 46.930 79 41.465 L 79 36 52 36 L 25 36 25 41.500 M 85 71 L 85 106 109.500 106 L 134 106 134 100.500 L 134 95 116 95 L 98 95 98 85.500 L 98 76 115 76 L 132 76 132 70.500 L 132 65 115 65 L 98 65 98 56 L 98 47 115.500 47 L 133 47 133 41.500 L 133 36 109 36 L 85 36 85 71 M 144 71 L 144 106 150.500 106 L 157 106 157 94.500 L 157 83 169.566 83 C 176.477 83, 182.955 83.441, 183.961 83.979 C 184.967 84.517, 186.287 86.384, 186.895 88.128 C 187.503 89.872, 188 94.606, 188 98.649 L 188 106 194.613 106 L 201.227 106 200.840 95.542 C 200.522 86.951, 200.085 84.585, 198.395 82.292 C 197.263 80.756, 194.911 79.069, 193.169 78.543 C 191.426 78.017, 190.005 77.342, 190.010 77.043 C 190.016 76.744, 191.827 75.741, 194.035 74.814 C 196.978 73.577, 198.456 72.154, 199.574 69.476 C 200.537 67.172, 201.100 62.679, 201.100 57.296 C 201.100 50.406, 200.658 47.877, 198.800 44.134 C 196.820 40.145, 195.804 39.262, 191.500 37.794 C 187.423 36.403, 182.577 36.079, 165.250 36.044 L 144 36 144 71 M 213 71 L 213 106 219.659 106 L 226.319 106 225.678 76.250 C 225.269 57.290, 225.382 47.083, 225.988 48.106 C 226.511 48.990, 230.825 60.015, 235.575 72.606 C 240.325 85.198, 245.104 97.883, 246.194 100.795 L 248.178 106.091 254.253 105.795 L 260.329 105.500 271.145 76.500 C 277.093 60.550, 282.197 47.050, 282.487 46.500 C 282.776 45.950, 282.805 59.113, 282.550 75.750 L 282.086 106 288.543 106 L 295 106 295 71 L 295 36 284.144 36 L 273.288 36 263.943 62 C 258.803 76.300, 254.334 88, 254.012 88 C 253.691 88, 249.185 76.300, 244 62 L 234.572 36 223.786 36 L 213 36 213 71 M 444 70.932 L 444 106 450.500 106 L 457 106 457 94.500 L 457 83 469.826 83 C 481.845 83, 482.782 83.141, 484.725 85.250 C 485.889 86.513, 487.040 89.474, 487.349 92 C 487.651 94.475, 487.921 98.638, 487.949 101.250 L 488 106 494.651 106 L 501.301 106 500.701 95.402 C 500.294 88.210, 499.585 84.016, 498.498 82.356 C 497.616 81.010, 495.906 79.516, 494.697 79.036 C 493.489 78.556, 491.600 77.844, 490.500 77.454 C 488.742 76.830, 488.876 76.640, 491.605 75.881 C 493.312 75.407, 495.878 73.849, 497.307 72.421 C 498.962 70.766, 500.149 68.192, 500.578 65.328 C 500.949 62.855, 501.036 57.465, 500.772 53.350 C 500.428 47.986, 499.726 45.108, 498.291 43.184 C 497.191 41.708, 494.763 39.600, 492.895 38.500 C 489.819 36.688, 487.365 36.470, 466.750 36.182 L 444 35.865 444 70.932 M 529.173 37.714 C 528.659 38.696, 523.459 54.002, 517.619 71.727 C 511.779 89.452, 507 104.414, 507 104.977 C 507 105.568, 509.709 106, 513.418 106 L 519.837 106 522 99.500 L 524.163 93 539.889 93 L 555.615 93 557.611 99.250 L 559.606 105.500 566.386 105.798 C 572.528 106.067, 573.110 105.926, 572.584 104.298 C 572.265 103.309, 566.924 87.650, 560.716 69.500 L 549.429 36.500 539.769 36.214 C 531.336 35.965, 529.990 36.156, 529.173 37.714 M 579 71 L 579 106 585.500 106 L 592 106 592 91.500 L 592 77 607.500 77 L 623 77 623 71.500 L 623 66 607.500 66 L 592 66 592 56.500 L 592 47 608.500 47 L 625 47 625 41.500 L 625 36 602 36 L 579 36 579 71 M 328.500 46.614 C 327.400 46.888, 325.292 47.579, 323.815 48.151 C 322.194 48.777, 320.686 50.440, 320.009 52.344 C 319.346 54.211, 318.920 61.970, 318.967 71.338 C 319.023 82.499, 319.460 88.166, 320.448 90.529 C 321.572 93.219, 322.704 94.114, 326.174 95.052 C 328.553 95.695, 333.736 96.016, 337.690 95.765 C 342.104 95.484, 345.887 94.649, 347.485 93.602 C 348.917 92.663, 350.519 90.765, 351.045 89.383 C 351.570 88.001, 352 79.495, 352 70.482 C 352 60.601, 351.559 53.126, 350.890 51.657 C 350.279 50.317, 348.592 48.661, 347.140 47.978 C 345.688 47.294, 341.350 46.595, 337.500 46.425 C 333.650 46.255, 329.600 46.339, 328.500 46.614 M 533.311 64.525 L 527.173 83 539.586 83 C 546.414 83, 552 82.714, 552 82.364 C 552 82.014, 549.472 74.026, 546.381 64.614 C 543.291 55.201, 540.468 47.174, 540.106 46.775 C 539.745 46.376, 536.688 54.364, 533.311 64.525 M 157.219 59.250 L 157.500 71.500 167.500 71.802 C 173 71.967, 178.988 71.830, 180.806 71.496 C 182.624 71.162, 184.986 70.014, 186.056 68.944 C 187.657 67.343, 188 65.590, 188 59 C 188 52.333, 187.667 50.667, 186 49 C 184.197 47.197, 182.667 47, 170.469 47 L 156.938 47 157.219 59.250 M 457 59.600 L 457 72.201 469.973 71.850 C 481.859 71.529, 483.135 71.311, 485.204 69.241 C 487.050 67.394, 487.530 65.627, 487.837 59.552 C 488.185 52.662, 488.026 51.935, 485.652 49.561 C 483.166 47.075, 482.710 47, 470.045 47 L 457 47 457 59.600"
     stroke="none"
     fill="#e6e2e7"
     fill-rule="evenodd"
     id="path8"
     style="fill:#008000" />
  <path
     d="M 260.784 20.738 C 263.689 20.941, 268.189 20.939, 270.784 20.734 C 273.378 20.528, 271 20.363, 265.500 20.365 C 260 20.368, 257.878 20.536, 260.784 20.738 M 379.784 20.738 C 382.689 20.941, 387.189 20.939, 389.784 20.734 C 392.378 20.528, 390 20.363, 384.500 20.365 C 379 20.368, 376.878 20.536, 379.784 20.738 M 191.768 21.725 C 193.565 21.947, 196.265 21.943, 197.768 21.715 C 199.271 21.486, 197.800 21.304, 194.500 21.310 C 191.200 21.315, 189.971 21.502, 191.768 21.725 M 452.768 21.725 C 454.565 21.947, 457.265 21.943, 458.768 21.715 C 460.271 21.486, 458.800 21.304, 455.500 21.310 C 452.200 21.315, 450.971 21.502, 452.768 21.725 M 152.750 22.706 C 153.988 22.944, 156.012 22.944, 157.250 22.706 C 158.488 22.467, 157.475 22.272, 155 22.272 C 152.525 22.272, 151.512 22.467, 152.750 22.706 M 492.750 22.706 C 493.988 22.944, 496.012 22.944, 497.250 22.706 C 498.488 22.467, 497.475 22.272, 495 22.272 C 492.525 22.272, 491.512 22.467, 492.750 22.706 M 79.310 41.500 C 79.315 44.800, 79.502 46.029, 79.725 44.232 C 79.947 42.435, 79.943 39.735, 79.715 38.232 C 79.486 36.729, 79.304 38.200, 79.310 41.500 M 133.310 41.500 C 133.315 44.800, 133.502 46.029, 133.725 44.232 C 133.947 42.435, 133.943 39.735, 133.715 38.232 C 133.486 36.729, 133.304 38.200, 133.310 41.500 M 625.310 41.500 C 625.315 44.800, 625.502 46.029, 625.725 44.232 C 625.947 42.435, 625.943 39.735, 625.715 38.232 C 625.486 36.729, 625.304 38.200, 625.310 41.500 M 332.750 46.723 C 334.538 46.945, 337.462 46.945, 339.250 46.723 C 341.038 46.502, 339.575 46.320, 336 46.320 C 332.425 46.320, 330.962 46.502, 332.750 46.723 M 400.250 46.728 C 402.313 46.944, 405.688 46.944, 407.750 46.728 C 409.813 46.513, 408.125 46.336, 404 46.336 C 399.875 46.336, 398.188 46.513, 400.250 46.728 M 45.443 76.500 C 45.443 93, 45.580 99.890, 45.748 91.812 C 45.915 83.733, 45.916 70.233, 45.748 61.812 C 45.581 53.390, 45.444 60, 45.443 76.500 M 98.360 56 C 98.360 61.225, 98.529 63.362, 98.735 60.750 C 98.941 58.138, 98.941 53.862, 98.735 51.250 C 98.529 48.638, 98.360 50.775, 98.360 56 M 157.452 59.248 L 157.500 71.500 169.252 71.550 L 181.003 71.600 169.532 71.268 L 158.061 70.937 157.732 58.967 L 157.404 46.997 157.452 59.248 M 58.442 77 C 58.442 93.225, 58.580 99.862, 58.748 91.750 C 58.916 83.637, 58.916 70.362, 58.748 62.250 C 58.580 54.137, 58.442 60.775, 58.442 77 M 365.395 71.500 C 365.396 79.200, 365.553 82.218, 365.743 78.206 C 365.934 74.195, 365.932 67.895, 365.741 64.206 C 365.549 60.518, 365.393 63.800, 365.395 71.500 M 225.252 63.500 C 225.263 65.700, 225.468 66.482, 225.707 65.238 C 225.946 63.994, 225.937 62.194, 225.687 61.238 C 225.437 60.282, 225.241 61.300, 225.252 63.500 M 623.310 71.500 C 623.315 74.800, 623.502 76.029, 623.725 74.232 C 623.947 72.435, 623.943 69.735, 623.715 68.232 C 623.486 66.729, 623.304 68.200, 623.310 71.500 M 462.789 71.741 C 466.248 71.937, 471.648 71.936, 474.789 71.738 C 477.930 71.540, 475.100 71.380, 468.500 71.382 C 461.900 71.384, 459.330 71.546, 462.789 71.741 M 98.365 85.500 C 98.368 91, 98.536 93.122, 98.738 90.216 C 98.941 87.311, 98.939 82.811, 98.734 80.216 C 98.528 77.622, 98.363 80, 98.365 85.500 M 282.286 81.500 C 282.294 84.250, 282.488 85.256, 282.718 83.736 C 282.947 82.216, 282.941 79.966, 282.704 78.736 C 282.467 77.506, 282.279 78.750, 282.286 81.500 M 157.382 94.500 C 157.384 101.100, 157.546 103.670, 157.741 100.211 C 157.937 96.752, 157.936 91.352, 157.738 88.211 C 157.540 85.070, 157.380 87.900, 157.382 94.500 M 398.250 95.716 C 399.762 95.945, 402.238 95.945, 403.750 95.716 C 405.262 95.487, 404.025 95.300, 401 95.300 C 397.975 95.300, 396.738 95.487, 398.250 95.716 M 487.310 100.500 C 487.315 103.800, 487.502 105.029, 487.725 103.232 C 487.947 101.435, 487.943 98.735, 487.715 97.232 C 487.486 95.729, 487.304 97.200, 487.310 100.500 M 152.750 119.706 C 153.988 119.944, 156.012 119.944, 157.250 119.706 C 158.488 119.467, 157.475 119.272, 155 119.272 C 152.525 119.272, 151.512 119.467, 152.750 119.706 M 492.750 119.706 C 493.988 119.944, 496.012 119.944, 497.250 119.706 C 498.488 119.467, 497.475 119.272, 495 119.272 C 492.525 119.272, 491.512 119.467, 492.750 119.706 M 191.768 120.725 C 193.565 120.947, 196.265 120.943, 197.768 120.715 C 199.271 120.486, 197.800 120.304, 194.500 120.310 C 191.200 120.315, 189.971 120.502, 191.768 120.725 M 452.768 120.725 C 454.565 120.947, 457.265 120.943, 458.768 120.715 C 460.271 120.486, 458.800 120.304, 455.500 120.310 C 452.200 120.315, 450.971 120.502, 452.768 120.725 M 260.784 121.738 C 263.689 121.941, 268.189 121.939, 270.784 121.734 C 273.378 121.528, 271 121.363, 265.500 121.365 C 260 121.368, 257.878 121.536, 260.784 121.738 M 379.784 121.738 C 382.689 121.941, 387.189 121.939, 389.784 121.734 C 392.378 121.528, 390 121.363, 384.500 121.365 C 379 121.368, 376.878 121.536, 379.784 121.738"
     stroke="none"
     fill="#e4e4e4"
     fill-rule="evenodd"
     id="path10" />
  <path
     d="M 226 21.069 C 198.775 21.475, 162.325 22.307, 145 22.919 C 127.675 23.531, 105.175 24.478, 95 25.024 C 84.825 25.569, 70.425 26.473, 63 27.031 C 55.575 27.589, 44.570 28.739, 38.545 29.587 C 32.520 30.435, 26.336 31.870, 24.803 32.776 C 23.270 33.681, 21.584 35.789, 21.057 37.461 C 20.529 39.132, 19.573 43.425, 18.933 47 C 18.293 50.575, 17.769 61.375, 17.769 71 C 17.769 80.625, 18.293 91.425, 18.933 95 C 19.573 98.575, 20.529 102.868, 21.057 104.539 C 21.584 106.211, 23.270 108.319, 24.803 109.224 C 26.336 110.130, 32.520 111.563, 38.545 112.410 C 44.570 113.257, 55.350 114.397, 62.500 114.943 C 69.650 115.490, 84.500 116.408, 95.500 116.983 C 106.500 117.559, 127.425 118.464, 142 118.994 C 156.575 119.525, 203.712 120.474, 246.750 121.104 C 305.516 121.964, 344.484 121.964, 403.250 121.104 C 446.287 120.474, 493.425 119.525, 508 118.994 C 522.575 118.464, 543.500 117.559, 554.500 116.983 C 565.500 116.408, 580.350 115.490, 587.500 114.943 C 594.650 114.397, 605.430 113.257, 611.455 112.410 C 617.480 111.563, 623.664 110.130, 625.197 109.224 C 626.730 108.319, 628.416 106.211, 628.943 104.539 C 629.471 102.868, 630.427 98.575, 631.067 95 C 631.707 91.425, 632.231 80.625, 632.231 71 C 632.231 61.375, 631.707 50.575, 631.067 47 C 630.427 43.425, 629.471 39.132, 628.943 37.461 C 628.416 35.789, 626.730 33.681, 625.197 32.776 C 623.664 31.870, 617.480 30.435, 611.455 29.587 C 605.430 28.739, 594.425 27.589, 587 27.031 C 579.575 26.473, 565.175 25.571, 555 25.027 C 544.825 24.483, 523.225 23.572, 507 23.001 C 490.775 22.431, 449.150 21.530, 414.500 20.999 C 379.850 20.468, 334.400 20.101, 313.500 20.183 C 292.600 20.265, 253.225 20.664, 226 21.069 M 319.849 36.388 C 317.290 37.077, 314.037 38.401, 312.619 39.330 C 311.202 40.259, 309.245 42.477, 308.271 44.259 C 306.773 47, 306.450 50.684, 306.179 68.129 C 305.979 81.001, 306.271 90.291, 306.955 92.834 C 307.559 95.075, 309.257 98.341, 310.730 100.091 C 312.202 101.840, 315.003 103.945, 316.953 104.767 C 319.022 105.640, 325.084 106.469, 331.500 106.757 C 338.118 107.054, 344.766 106.780, 348.188 106.068 C 351.317 105.417, 355.367 103.897, 357.188 102.690 C 359.011 101.484, 361.624 98.249, 363 95.499 C 365.410 90.679, 365.500 89.800, 365.500 71 C 365.500 51.830, 365.454 51.407, 362.795 45.992 C 361.260 42.867, 358.881 39.781, 357.295 38.859 C 355.758 37.965, 352.115 36.731, 349.201 36.117 C 346.286 35.503, 339.536 35.030, 334.201 35.067 C 328.865 35.105, 322.407 35.699, 319.849 36.388 M 389.718 36.038 C 387.637 36.557, 384.653 37.645, 383.087 38.455 C 381.520 39.265, 379.077 41.308, 377.658 42.995 C 376.238 44.682, 374.612 47.736, 374.044 49.781 C 373.476 51.826, 373.011 61.600, 373.011 71.500 C 373.011 81.400, 373.476 91.174, 374.044 93.219 C 374.612 95.264, 376.197 98.270, 377.567 99.897 C 378.936 101.525, 382.182 103.676, 384.778 104.678 C 388.566 106.140, 392.367 106.500, 404 106.500 C 415.494 106.500, 419.454 106.132, 423.099 104.725 C 425.629 103.748, 428.623 101.948, 429.753 100.725 C 430.884 99.501, 432.299 96.700, 432.899 94.500 C 433.498 92.300, 433.991 85.662, 433.994 79.750 L 434 69 418.500 69 L 403 69 403 74 L 403 79 412.138 79 L 421.275 79 420.605 84.708 C 420.236 87.847, 419.206 91.220, 418.317 92.202 C 417.428 93.185, 415.233 94.394, 413.439 94.889 C 411.645 95.385, 406.200 95.562, 401.339 95.283 C 396.435 95.001, 391.521 94.162, 390.300 93.397 C 389.089 92.639, 387.629 90.327, 387.055 88.259 C 386.481 86.192, 386.034 78.200, 386.062 70.500 C 386.091 62.400, 386.616 55.036, 387.306 53.026 C 387.964 51.113, 389.623 48.985, 391 48.291 C 392.546 47.511, 397.628 47.024, 404.316 47.015 C 410.264 47.007, 415.986 47.457, 417.030 48.016 C 418.075 48.575, 419.467 50.825, 420.123 53.016 L 421.317 57 427.798 57 L 434.280 57 433.708 51.459 C 433.393 48.411, 432.318 44.518, 431.318 42.806 C 430.318 41.095, 427.700 38.757, 425.500 37.611 C 422.079 35.829, 419.473 35.496, 407.500 35.311 C 399.800 35.192, 391.798 35.519, 389.718 36.038 M 25 41.500 L 25 47 35 47 L 45 47 45 76.500 L 45 106 52 106 L 59 106 59 76.500 L 59 47 69.500 47 L 80 47 80 41.500 L 80 36 52.500 36 L 25 36 25 41.500 M 85 71 L 85 106 109.500 106 L 134 106 134 100.500 L 134 95 116.500 95 L 99 95 99 85.500 L 99 76 115.500 76 L 132 76 132 70.500 L 132 65 115.500 65 L 99 65 99 56 L 99 47 116.500 47 L 134 47 134 41.500 L 134 36 109.500 36 L 85 36 85 71 M 144 71 L 144 106 151 106 L 158 106 158 94.500 L 158 83 169.944 83 C 180.961 83, 182.096 83.178, 184.558 85.296 C 186.998 87.395, 187.273 88.384, 187.753 96.796 L 188.277 106 194.639 106 L 201 106 200.944 96.750 C 200.913 91.662, 200.350 85.957, 199.694 84.070 C 198.818 81.553, 197.303 80.031, 194 78.349 C 190.622 76.628, 190.057 76.049, 191.734 76.028 C 192.963 76.013, 195.364 74.753, 197.070 73.229 C 199.735 70.848, 200.320 69.406, 201.229 62.979 C 202.026 57.344, 201.977 54.036, 201.034 49.563 C 200.191 45.572, 198.890 42.736, 197.062 40.908 C 195.566 39.412, 192.578 37.699, 190.421 37.100 C 188.164 36.473, 177.484 36.009, 165.250 36.006 L 144 36 144 71 M 213 71 L 213 106 219.645 106 L 226.289 106 225.781 76.250 C 225.483 58.798, 225.636 47.327, 226.151 48.500 C 226.634 49.600, 231.686 62.875, 237.377 78 L 247.724 105.500 254.112 105.774 L 260.500 106.049 271.395 76.524 C 277.387 60.286, 282.505 47, 282.768 47 C 283.031 47, 282.914 60.275, 282.508 76.500 L 281.771 106 288.385 106 L 295 106 295 71 L 295 36 284.072 36 L 273.144 36 271.188 41.250 C 270.112 44.138, 265.917 55.831, 261.866 67.235 C 257.815 78.640, 254.275 87.971, 254 87.972 C 253.725 87.972, 249.282 76.279, 244.126 61.987 L 234.751 36 223.876 36 L 213 36 213 71 M 444 70.934 L 444 106 450.500 106 L 457 106 457 94.500 L 457 83 469.545 83 C 481.532 83, 482.200 83.109, 484.545 85.455 C 486.790 87.699, 487 88.684, 487 96.955 L 487 106 494.113 106 L 501.227 106 500.845 95.677 C 500.556 87.880, 500.020 84.680, 498.654 82.594 C 497.659 81.075, 495.228 79.158, 493.253 78.332 L 489.661 76.831 493.868 74.948 C 496.888 73.596, 498.488 72.076, 499.538 69.564 C 500.452 67.376, 500.992 62.773, 500.978 57.282 C 500.962 50.827, 500.453 47.392, 499.057 44.316 C 497.881 41.727, 495.888 39.440, 493.829 38.316 C 490.938 36.739, 487.442 36.458, 467.250 36.184 L 444 35.867 444 70.934 M 523.028 55.250 C 519.504 65.838, 514.257 81.607, 511.368 90.293 L 506.116 106.085 513.255 105.793 L 520.393 105.500 522.397 99.226 L 524.401 92.951 539.895 93.226 L 555.389 93.500 557.387 99.750 L 559.385 106 566.266 106 C 571.383 106, 573.064 105.670, 572.823 104.711 C 572.645 104.002, 567.331 88.252, 561.013 69.711 L 549.526 36 539.481 36 L 529.436 36 523.028 55.250 M 579 71 L 579 106 585.500 106 L 592 106 592 91.500 L 592 77 608 77 L 624 77 624 71.500 L 624 66 608 66 L 592 66 592 56.500 L 592 47 609 47 L 626 47 626 41.500 L 626 36 602.500 36 L 579 36 579 71 M 533.669 63.750 C 530.545 73.513, 527.991 81.838, 527.994 82.250 C 527.997 82.662, 533.448 83, 540.107 83 C 549.371 83, 552.106 82.706, 551.754 81.750 C 551.501 81.063, 548.716 72.737, 545.564 63.250 C 542.412 53.763, 539.725 46, 539.592 46 C 539.459 46, 536.793 53.987, 533.669 63.750 M 158 59 L 158 71 170.927 71 C 183.702 71, 183.879 70.969, 185.927 68.365 C 187.570 66.277, 188 64.297, 188 58.820 C 188 52.816, 187.678 51.587, 185.545 49.455 C 183.200 47.109, 182.532 47, 170.545 47 L 158 47 158 59 M 322.306 49.413 L 319.500 51.825 319.500 70.889 L 319.500 89.952 322.199 92.652 C 324.748 95.202, 325.414 95.351, 334.199 95.332 C 339.314 95.321, 344.759 94.795, 346.298 94.162 C 348.013 93.458, 349.684 91.607, 350.613 89.384 C 351.814 86.510, 352.063 82.233, 351.814 68.789 L 351.500 51.822 348.694 49.411 C 346.119 47.198, 345.037 47, 335.500 47 C 325.961 47, 324.882 47.197, 322.306 49.413 M 457 58.923 L 457 71 469.889 71 C 481.089 71, 483.088 70.749, 485.139 69.089 C 487.266 67.366, 487.500 66.381, 487.500 59.127 C 487.500 52.739, 487.132 50.707, 485.717 49.288 C 484.218 47.785, 481.789 47.448, 470.467 47.173 L 457 46.845 457 58.923"
     stroke="none"
     fill="#fbfbfb"
     fill-rule="evenodd"
     id="path12" />
</svg>
